<svg xmlns="http://www.w3.org/2000/svg" viewBox="0 0 64 64">
  <defs>
    <linearGradient id="g" x1="0" x2="1" y1="0" y2="1">
      <stop offset="0" stop-color="#ffec9a"/>
      <stop offset="1" stop-color="#f6b500"/>
    </linearGradient>
  </defs>
  <rect width="64" height="64" rx="14" fill="url(#g)"/>
  <path fill="#141414" d="M18.5 25.5c1.4-3.9 4.3-6.5 8.7-6.5h9c4.6 0 7.4 2.5 8.9 6.5l1.9 5.5h3.7c2.2 0 3.8 1.6 3.8 3.7v8.6c0 .8-.7 1.5-1.5 1.5h-2.6c-.7 3-3.4 5.3-6.5 5.3s-5.8-2.3-6.5-5.3h-9.4c-.7 3-3.4 5.3-6.5 5.3s-5.8-2.3-6.5-5.3h-3.6c-.8 0-1.5-.7-1.5-1.5v-8.6c0-2.1 1.6-3.7 3.8-3.7h2.4l1.9-5.5zm5.4 5.5h16.1l-1.3-3.7c-.6-1.8-1.9-2.9-3.9-2.9h-5.8c-2 0-3.3 1.1-3.9 2.9l-1.2 3.7zm-2.8 15.1c1.7 0 3.1-1.4 3.1-3.1s-1.4-3.1-3.1-3.1-3.1 1.4-3.1 3.1 1.4 3.1 3.1 3.1zm24.8 0c1.7 0 3.1-1.4 3.1-3.1s-1.4-3.1-3.1-3.1-3.1 1.4-3.1 3.1 1.4 3.1 3.1 3.1z"/>
  <path fill="#ffd54f" d="M24.5 35.5h15a1.5 1.5 0 0 1 0 3h-15a1.5 1.5 0 1 1 0-3z"/>
</svg>
